Coordinates
version=1
nRows=8
nColumns=33
inDegrees=yes

Units are S.I. units (second, meters, Newtons, ...)
Angles are in degrees.

endheader
time	ground_thorax_rot_x	ground_thorax_rot_y	ground_thorax_rot_z	ground_thorax_tx	ground_thorax_ty	ground_thorax_tz	clav_prot_r	clav_elev_r	scapula_abduction_r	scapula_elevation_r	scapula_upward_rot_r	scapula_winging_r	shoulder_elv_r	plane_of_elev_r	axial_rot_r	elbow_flexion_r	pro_sup_r	wrist_flex_r	wrist_dev_r	clav_prot_l	clav_elev_l	scapula_abduction_l	scapula_elevation_l	scapula_upward_rot_l	scapula_winging_l	shoulder_elv_l	plane_of_elev_l	axial_rot_l	elbow_flexion_l	pro_sup_l	wrist_flex_l	wrist_dev_l
      4.10000000	     39.00457250	      3.24085482	     14.80978507	   -230.59462986	    855.19744673	    -10.96478666	     12.67319212	     36.53262366	     32.90000380	     45.00000000	    -45.00000000	   2075.50919906	   -473.52895351	    149.67485028	   -108.42631130	     12.96174358	     37.75374919	     18.15705215	      7.82277040	     12.15600689	    -45.00000000	    -34.59405688	     45.00000000	    -45.00000000	    460.65195068	  -2616.16740082	    146.26643985	    134.74183746	    370.21167479	     27.52959127	      9.56705192	    -22.56100485
      4.11000000	     39.13504959	      3.13434144	     14.62704351	   -231.82329162	    857.06568726	    -10.82360811	     13.15082752	     36.69869840	     33.18793160	     45.00000000	    -45.00000000	   2075.00315498	   -473.79751466	    149.44339177	   -107.73581467	     12.85112078	     36.76492037	     18.20088677	      7.44821817	     11.39529976	    -45.00000000	    -34.45598135	     45.00000000	    -45.00000000	    461.30735809	  -2616.15896257	    145.88942068	    134.28982382	    370.43360353	     28.40588633	      9.75680712	    -22.39415610
      4.12000000	     39.21393976	      3.14511804	     14.36871388	   -232.76744407	    858.77862129	    -10.66683539	     12.99493755	     36.57425256	     33.12196343	     45.00000000	    -45.00000000	   2074.98736852	   -473.68215988	    149.39154419	   -107.99900893	     12.84535371	     35.79777661	     18.11051972	      7.56355225	     11.72999947	    -45.00000000	    -34.49070224	     45.00000000	    -45.00000000	    461.25232232	  -2616.04822712	    146.07699922	    134.16645102	    370.50210586	     29.02741064	      9.50392696	    -22.53562038
      4.13000000	     39.28728816	      3.15336116	     14.17672072	   -233.43544780	    860.32832576	    -10.50127162	     13.04772357	     36.61043461	     33.18185708	     45.00000000	    -45.00000000	   2074.91452423	   -473.66412307	    149.33951142	   -108.16041219	     12.75364292	     34.92927210	     18.13458694	      7.54512468	     11.70564092	    -45.00000000	    -34.53261944	     45.00000000	    -45.00000000	    461.44054947	  -2616.01561785	    146.03879493	    134.10033085	    370.55186602	     29.52863757	      9.51308913	    -22.50244456
      4.14000000	     39.38934494	      3.00298534	     13.82580021	   -233.84023717	    861.71730835	    -10.32857727	     13.02674295	     36.55311312	     33.30244695	     45.00000000	    -45.00000000	   2074.82225466	   -473.69328617	    149.13746140	   -108.38191538	     12.70524370	     34.20312529	     18.03771995	      7.52870153	     11.82235051	    -45.00000000	    -34.63554356	     45.00000000	    -45.00000000	    461.48576069	  -2616.03903598	    146.04940667	    134.00913614	    370.60449916	     29.86286249	      9.43427637	    -22.56877872
      4.15000000	     39.42318829	      3.16563996	     13.79588473	   -233.99379797	    862.94862949	    -10.14729848	     13.09134312	     36.57086529	     33.29918706	     45.00000000	    -45.00000000	   2074.84569388	   -473.50442381	    149.21306283	   -108.47262835	     12.79085488	     33.56660971	     18.16864408	      7.58182677	     11.83497132	    -45.00000000	    -34.71365655	     45.00000000	    -45.00000000	    461.60542230	  -2615.94496915	    146.12325370	    133.97780374	    370.74889380	     30.10451721	      9.42655349	    -22.55358048
      4.16000000	     39.47386628	      3.11646684	     13.58945822	   -233.91085318	    864.02822339	     -9.95420884	     12.98077306	     36.48270684	     33.28518104	     45.00000000	    -45.00000000	   2074.73393088	   -473.46255324	    148.93488842	   -108.75397304	     12.79672640	     33.00490888	     18.00448494	      7.45187350	     12.00532598	    -45.00000000	    -34.86912573	     45.00000000	    -45.00000000	    461.73270178	  -2615.94707514	    146.12058669	    133.89783579	    370.82007333	     30.26107305	      9.31207802	    -22.60945588
      4.17000000	     39.36410443	      3.57030897	     13.69344881	   -233.60896692	    864.97277415	     -9.74514915	     12.83887777	     36.52509787	     32.77021913	     45.00000000	    -45.00000000	   2075.08499946	   -472.96384894	    148.99719906	   -108.80742298	     12.95750185	     32.57966486	     18.29931380	      7.61865189	     12.10698036	    -45.00000000	    -35.23651472	     45.00000000	    -45.00000000	    461.79604146	  -2615.78109129	    146.26475760	    133.93865124	    370.95944375	     30.37909745	      9.33631463	    -22.57775972
